<mxfile host="app.diagrams.net" modified="2024-07-05T11:34:56.739Z" agent="Mozilla/5.0 (Windows NT 10.0; Win64; x64) AppleWebKit/537.36 (KHTML, like Gecko) Chrome/126.0.0.0 Safari/537.36" etag="-w84ZzV-Py-gVyptq6IJ" version="24.6.4" type="github">
  <diagram name="第 1 页" id="gC0Vvu3_TzcymTGBjtgO">
    <mxGraphModel dx="1434" dy="1180" grid="1" gridSize="10" guides="1" tooltips="1" connect="1" arrows="1" fold="1" page="0" pageScale="1" pageWidth="827" pageHeight="1169" background="#E0E0E0" math="0" shadow="0">
      <root>
        <mxCell id="0" />
        <mxCell id="1" parent="0" />
        <mxCell id="q6e-PI2Hyxrs_eclpMZO-18" style="edgeStyle=orthogonalEdgeStyle;rounded=1;orthogonalLoop=1;jettySize=auto;html=1;entryX=0;entryY=0.5;entryDx=0;entryDy=0;labelBackgroundColor=none;fontColor=default;" edge="1" parent="1" source="q6e-PI2Hyxrs_eclpMZO-3" target="q6e-PI2Hyxrs_eclpMZO-5">
          <mxGeometry relative="1" as="geometry" />
        </mxCell>
        <mxCell id="q6e-PI2Hyxrs_eclpMZO-3" value="&lt;span style=&quot;color: rgb(51, 51, 51); font-family: STHeitiSC-Light, STHeiti, Hei, &amp;quot;Heiti SC&amp;quot;, &amp;quot;Microsoft Yahei&amp;quot;, Arial, sans-serif; font-size: 24px; text-align: start;&quot;&gt;L2规范和约束&lt;/span&gt;" style="rounded=1;whiteSpace=wrap;html=1;labelBackgroundColor=none;" vertex="1" parent="1">
          <mxGeometry x="120" y="450" width="180" height="50" as="geometry" />
        </mxCell>
        <mxCell id="q6e-PI2Hyxrs_eclpMZO-4" value="" style="rounded=1;whiteSpace=wrap;html=1;labelBackgroundColor=none;" vertex="1" parent="1">
          <mxGeometry x="450" y="790" width="120" height="60" as="geometry" />
        </mxCell>
        <mxCell id="q6e-PI2Hyxrs_eclpMZO-13" style="edgeStyle=orthogonalEdgeStyle;rounded=1;orthogonalLoop=1;jettySize=auto;html=1;labelBackgroundColor=none;fontColor=default;" edge="1" parent="1" source="q6e-PI2Hyxrs_eclpMZO-5" target="q6e-PI2Hyxrs_eclpMZO-6">
          <mxGeometry relative="1" as="geometry" />
        </mxCell>
        <mxCell id="q6e-PI2Hyxrs_eclpMZO-16" style="edgeStyle=orthogonalEdgeStyle;rounded=1;orthogonalLoop=1;jettySize=auto;html=1;entryX=0;entryY=0.5;entryDx=0;entryDy=0;labelBackgroundColor=none;fontColor=default;" edge="1" parent="1" source="q6e-PI2Hyxrs_eclpMZO-5" target="q6e-PI2Hyxrs_eclpMZO-9">
          <mxGeometry relative="1" as="geometry" />
        </mxCell>
        <mxCell id="q6e-PI2Hyxrs_eclpMZO-17" style="edgeStyle=orthogonalEdgeStyle;rounded=1;orthogonalLoop=1;jettySize=auto;html=1;entryX=0;entryY=0.5;entryDx=0;entryDy=0;labelBackgroundColor=none;fontColor=default;" edge="1" parent="1" source="q6e-PI2Hyxrs_eclpMZO-5" target="q6e-PI2Hyxrs_eclpMZO-10">
          <mxGeometry relative="1" as="geometry" />
        </mxCell>
        <mxCell id="q6e-PI2Hyxrs_eclpMZO-5" value="&lt;span style=&quot;color: rgb(51, 51, 51); font-family: STHeitiSC-Light, STHeiti, Hei, &amp;quot;Heiti SC&amp;quot;, &amp;quot;Microsoft Yahei&amp;quot;, Arial, sans-serif; font-size: 16px; text-align: start;&quot;&gt;特效&lt;/span&gt;" style="rounded=1;whiteSpace=wrap;html=1;labelBackgroundColor=none;" vertex="1" parent="1">
          <mxGeometry x="450" y="-80" width="100" height="60" as="geometry" />
        </mxCell>
        <mxCell id="q6e-PI2Hyxrs_eclpMZO-15" style="edgeStyle=orthogonalEdgeStyle;rounded=1;orthogonalLoop=1;jettySize=auto;html=1;labelBackgroundColor=none;fontColor=default;" edge="1" parent="1" source="q6e-PI2Hyxrs_eclpMZO-6" target="q6e-PI2Hyxrs_eclpMZO-12">
          <mxGeometry relative="1" as="geometry" />
        </mxCell>
        <mxCell id="q6e-PI2Hyxrs_eclpMZO-35" style="edgeStyle=orthogonalEdgeStyle;rounded=0;orthogonalLoop=1;jettySize=auto;html=1;entryX=0;entryY=0.5;entryDx=0;entryDy=0;" edge="1" parent="1" source="q6e-PI2Hyxrs_eclpMZO-6" target="q6e-PI2Hyxrs_eclpMZO-11">
          <mxGeometry relative="1" as="geometry" />
        </mxCell>
        <mxCell id="q6e-PI2Hyxrs_eclpMZO-6" value="&lt;span style=&quot;color: rgb(51, 51, 51); font-family: STHeitiSC-Light, STHeiti, Hei, &amp;quot;Heiti SC&amp;quot;, &amp;quot;Microsoft Yahei&amp;quot;, Arial, sans-serif; text-align: start;&quot;&gt;性能&lt;/span&gt;" style="rounded=1;whiteSpace=wrap;html=1;labelBackgroundColor=none;" vertex="1" parent="1">
          <mxGeometry x="670" y="-100" width="120" height="60" as="geometry" />
        </mxCell>
        <mxCell id="q6e-PI2Hyxrs_eclpMZO-21" value="" style="edgeStyle=orthogonalEdgeStyle;rounded=1;orthogonalLoop=1;jettySize=auto;html=1;fontColor=default;labelBackgroundColor=none;" edge="1" parent="1" source="q6e-PI2Hyxrs_eclpMZO-9" target="q6e-PI2Hyxrs_eclpMZO-20">
          <mxGeometry relative="1" as="geometry" />
        </mxCell>
        <mxCell id="q6e-PI2Hyxrs_eclpMZO-9" value="&lt;span style=&quot;color: rgb(51, 51, 51); font-family: STHeitiSC-Light, STHeiti, Hei, &amp;quot;Heiti SC&amp;quot;, &amp;quot;Microsoft Yahei&amp;quot;, Arial, sans-serif; text-align: start;&quot;&gt;效果&lt;/span&gt;" style="rounded=1;whiteSpace=wrap;html=1;labelBackgroundColor=none;" vertex="1" parent="1">
          <mxGeometry x="700" y="20" width="120" height="60" as="geometry" />
        </mxCell>
        <mxCell id="q6e-PI2Hyxrs_eclpMZO-23" value="" style="edgeStyle=orthogonalEdgeStyle;rounded=1;orthogonalLoop=1;jettySize=auto;html=1;fontColor=default;labelBackgroundColor=none;" edge="1" parent="1" source="q6e-PI2Hyxrs_eclpMZO-10" target="q6e-PI2Hyxrs_eclpMZO-22">
          <mxGeometry relative="1" as="geometry" />
        </mxCell>
        <mxCell id="q6e-PI2Hyxrs_eclpMZO-24" value="" style="edgeStyle=orthogonalEdgeStyle;rounded=1;orthogonalLoop=1;jettySize=auto;html=1;fontColor=default;labelBackgroundColor=none;" edge="1" parent="1" source="q6e-PI2Hyxrs_eclpMZO-10" target="q6e-PI2Hyxrs_eclpMZO-22">
          <mxGeometry relative="1" as="geometry" />
        </mxCell>
        <mxCell id="q6e-PI2Hyxrs_eclpMZO-27" style="edgeStyle=orthogonalEdgeStyle;rounded=1;orthogonalLoop=1;jettySize=auto;html=1;entryX=0;entryY=0.5;entryDx=0;entryDy=0;fontColor=default;labelBackgroundColor=none;" edge="1" parent="1" source="q6e-PI2Hyxrs_eclpMZO-10" target="q6e-PI2Hyxrs_eclpMZO-26">
          <mxGeometry relative="1" as="geometry" />
        </mxCell>
        <mxCell id="q6e-PI2Hyxrs_eclpMZO-10" value="&lt;span style=&quot;color: rgb(51, 51, 51); font-family: STHeitiSC-Light, STHeiti, Hei, &amp;quot;Heiti SC&amp;quot;, &amp;quot;Microsoft Yahei&amp;quot;, Arial, sans-serif; text-align: start;&quot;&gt;规范&lt;/span&gt;" style="rounded=1;whiteSpace=wrap;html=1;labelBackgroundColor=none;" vertex="1" parent="1">
          <mxGeometry x="680" y="140" width="120" height="60" as="geometry" />
        </mxCell>
        <mxCell id="q6e-PI2Hyxrs_eclpMZO-11" value="&lt;span style=&quot;color: rgb(51, 51, 51); font-family: STHeitiSC-Light, STHeiti, Hei, &amp;quot;Heiti SC&amp;quot;, &amp;quot;Microsoft Yahei&amp;quot;, Arial, sans-serif; text-align: start;&quot;&gt;层级太多&lt;/span&gt;" style="rounded=1;whiteSpace=wrap;html=1;labelBackgroundColor=none;" vertex="1" parent="1">
          <mxGeometry x="850" y="-200" width="120" height="60" as="geometry" />
        </mxCell>
        <mxCell id="q6e-PI2Hyxrs_eclpMZO-12" value="&lt;span style=&quot;color: rgb(51, 51, 51); font-family: STHeitiSC-Light, STHeiti, Hei, &amp;quot;Heiti SC&amp;quot;, &amp;quot;Microsoft Yahei&amp;quot;, Arial, sans-serif; text-align: start;&quot;&gt;模块太多&lt;/span&gt;" style="rounded=1;whiteSpace=wrap;html=1;labelBackgroundColor=none;" vertex="1" parent="1">
          <mxGeometry x="850" y="-90" width="120" height="60" as="geometry" />
        </mxCell>
        <mxCell id="q6e-PI2Hyxrs_eclpMZO-20" value="&lt;span style=&quot;color: rgb(51, 51, 51); font-family: STHeitiSC-Light, STHeiti, Hei, &amp;quot;Heiti SC&amp;quot;, &amp;quot;Microsoft Yahei&amp;quot;, Arial, sans-serif; text-align: start;&quot;&gt;Radial Blur&lt;/span&gt;" style="rounded=1;whiteSpace=wrap;html=1;labelBackgroundColor=none;" vertex="1" parent="1">
          <mxGeometry x="900" y="20" width="120" height="60" as="geometry" />
        </mxCell>
        <mxCell id="q6e-PI2Hyxrs_eclpMZO-32" style="edgeStyle=orthogonalEdgeStyle;rounded=0;orthogonalLoop=1;jettySize=auto;html=1;" edge="1" parent="1" source="q6e-PI2Hyxrs_eclpMZO-22" target="q6e-PI2Hyxrs_eclpMZO-28">
          <mxGeometry relative="1" as="geometry" />
        </mxCell>
        <mxCell id="q6e-PI2Hyxrs_eclpMZO-33" style="edgeStyle=orthogonalEdgeStyle;rounded=0;orthogonalLoop=1;jettySize=auto;html=1;entryX=0;entryY=0.5;entryDx=0;entryDy=0;" edge="1" parent="1" source="q6e-PI2Hyxrs_eclpMZO-22" target="q6e-PI2Hyxrs_eclpMZO-29">
          <mxGeometry relative="1" as="geometry" />
        </mxCell>
        <mxCell id="q6e-PI2Hyxrs_eclpMZO-34" style="edgeStyle=orthogonalEdgeStyle;rounded=0;orthogonalLoop=1;jettySize=auto;html=1;entryX=0;entryY=0.5;entryDx=0;entryDy=0;" edge="1" parent="1" source="q6e-PI2Hyxrs_eclpMZO-22" target="q6e-PI2Hyxrs_eclpMZO-30">
          <mxGeometry relative="1" as="geometry" />
        </mxCell>
        <mxCell id="q6e-PI2Hyxrs_eclpMZO-22" value="&lt;span style=&quot;color: rgb(51, 51, 51); font-family: STHeitiSC-Light, STHeiti, Hei, &amp;quot;Heiti SC&amp;quot;, &amp;quot;Microsoft Yahei&amp;quot;, Arial, sans-serif; text-align: start;&quot;&gt;制作规范&lt;/span&gt;" style="rounded=1;whiteSpace=wrap;html=1;labelBackgroundColor=none;" vertex="1" parent="1">
          <mxGeometry x="880" y="140" width="120" height="60" as="geometry" />
        </mxCell>
        <mxCell id="q6e-PI2Hyxrs_eclpMZO-26" value="&lt;span style=&quot;color: rgb(51, 51, 51); font-family: STHeitiSC-Light, STHeiti, Hei, &amp;quot;Heiti SC&amp;quot;, &amp;quot;Microsoft Yahei&amp;quot;, Arial, sans-serif; text-align: start;&quot;&gt;目录和命名规范&lt;/span&gt;" style="rounded=1;whiteSpace=wrap;html=1;labelBackgroundColor=none;" vertex="1" parent="1">
          <mxGeometry x="890" y="350" width="120" height="60" as="geometry" />
        </mxCell>
        <mxCell id="q6e-PI2Hyxrs_eclpMZO-28" value="&lt;span style=&quot;color: rgb(51, 51, 51); font-family: STHeitiSC-Light, STHeiti, Hei, &amp;quot;Heiti SC&amp;quot;, &amp;quot;Microsoft Yahei&amp;quot;, Arial, sans-serif; text-align: start;&quot;&gt;开了曲面细分，要禁用&lt;/span&gt;" style="rounded=1;whiteSpace=wrap;html=1;" vertex="1" parent="1">
          <mxGeometry x="1060" y="80" width="120" height="60" as="geometry" />
        </mxCell>
        <mxCell id="q6e-PI2Hyxrs_eclpMZO-29" value="&lt;span style=&quot;color: rgb(51, 51, 51); font-family: STHeitiSC-Light, STHeiti, Hei, &amp;quot;Heiti SC&amp;quot;, &amp;quot;Microsoft Yahei&amp;quot;, Arial, sans-serif; text-align: start;&quot;&gt;禁用Lit Shader&lt;/span&gt;" style="rounded=1;whiteSpace=wrap;html=1;" vertex="1" parent="1">
          <mxGeometry x="1110" y="150" width="120" height="60" as="geometry" />
        </mxCell>
        <mxCell id="q6e-PI2Hyxrs_eclpMZO-30" value="&lt;span style=&quot;color: rgb(51, 51, 51); font-family: STHeitiSC-Light, STHeiti, Hei, &amp;quot;Heiti SC&amp;quot;, &amp;quot;Microsoft Yahei&amp;quot;, Arial, sans-serif; text-align: start;&quot;&gt;RenderPipeline改BJRenderPipeline&lt;/span&gt;" style="rounded=1;whiteSpace=wrap;html=1;" vertex="1" parent="1">
          <mxGeometry x="1110" y="230" width="120" height="60" as="geometry" />
        </mxCell>
      </root>
    </mxGraphModel>
  </diagram>
</mxfile>
